<?xml version="1.0" encoding="UTF-8"?>
<!DOCTYPE svg PUBLIC "-//W3C//DTD SVG 1.1//EN" "http://www.w3.org/Graphics/SVG/1.1/DTD/svg11.dtd">
<svg version="1.1" xmlns="http://www.w3.org/2000/svg" xmlns:xlink="http://www.w3.org/1999/xlink" x="0" y="0" width="650" height="650" viewBox="0, 0, 650, 650">
  <g id="Layer_3" display="none">
    <path d="M55.056,412.361 C84.964,357.361 325.159,221.691 704.027,224.602" fill-opacity="0" stroke="#000000" stroke-width="1" id="Shape"/>
  </g>
  <g id="Layer_1">
    <g>
      <path d="M248.409,37.5 C271.232,37.569 289.819,56.165 290.393,78.852 L290.409,79 L290.409,79.496 L290.409,79.5 L290.409,79.504 L290.409,290.763 C298.378,289.844 306.395,289.586 314.409,289.5 L314.409,289.5 C322.434,289.384 330.425,290.079 338.409,290.763 C338.409,254.342 338.409,217.921 338.409,181.5 C338.409,148.363 365.272,121.5 398.409,121.5 L398.409,121.5 C418.601,121.76 433.751,130.165 446.404,145.498 L446.409,145.5 L520.258,234.634 C520.812,235.142 520.294,234.665 521.721,236.161 L521.722,236.162 L523.075,237.968 C525.498,240.771 526.421,244.144 527.453,247.553 C530.828,259.035 526.415,269.751 517.91,277.581 C504.431,287.888 488.135,286.417 476.66,273.953 C476.523,274.066 476.576,274.022 476.501,274.083 L422.277,208.791 L422.393,317.586 C471.3,344.771 505.561,394.923 506.409,451.5 C506.409,540.97 420.448,613.5 314.409,613.5 C208.37,613.5 122.409,540.97 122.409,451.5 C122.425,394.707 158.212,345.067 206.409,317.595 L206.409,79 L206.426,78.85 C206.633,55.78 225.876,38.069 248.409,37.5 z" fill="#FFCACA"/>
      <path d="M248.409,37.5 C271.232,37.569 289.819,56.165 290.393,78.852 L290.409,79 L290.409,79.496 L290.409,79.5 L290.409,79.504 L290.409,290.763 C298.378,289.844 306.395,289.586 314.409,289.5 L314.409,289.5 C322.434,289.384 330.425,290.079 338.409,290.763 C338.409,254.342 338.409,217.921 338.409,181.5 C338.409,148.363 365.272,121.5 398.409,121.5 L398.409,121.5 C418.601,121.76 433.751,130.165 446.404,145.498 L446.409,145.5 L520.258,234.634 C520.812,235.142 520.294,234.665 521.721,236.161 L521.722,236.162 L523.075,237.968 C525.498,240.771 526.421,244.144 527.453,247.553 C530.828,259.035 526.415,269.751 517.91,277.581 C504.431,287.888 488.135,286.417 476.66,273.953 C476.523,274.066 476.576,274.022 476.501,274.083 L422.277,208.791 L422.393,317.586 C471.3,344.771 505.561,394.923 506.409,451.5 C506.409,540.97 420.448,613.5 314.409,613.5 C208.37,613.5 122.409,540.97 122.409,451.5 C122.425,394.707 158.212,345.067 206.409,317.595 L206.409,79 L206.426,78.85 C206.633,55.78 225.876,38.069 248.409,37.5 z" fill-opacity="0" stroke="#757575" stroke-width="8"/>
    </g>
    <g>
      <g>
        <path d="M251.536,436.082 C241.595,436.082 233.536,428.023 233.536,418.082 C233.536,408.141 241.595,400.082 251.536,400.082 C261.477,400.082 269.536,408.141 269.536,418.082 C269.536,428.023 261.477,436.082 251.536,436.082 z" fill="#32312D"/>
        <path d="M251.536,436.082 C241.595,436.082 233.536,428.023 233.536,418.082 C233.536,408.141 241.595,400.082 251.536,400.082 C261.477,400.082 269.536,408.141 269.536,418.082 C269.536,428.023 261.477,436.082 251.536,436.082 z" fill-opacity="0" stroke="#32312D" stroke-width="7"/>
      </g>
      <g>
        <path d="M380.647,436.082 C370.706,436.082 362.647,428.023 362.647,418.082 C362.647,408.141 370.706,400.082 380.647,400.082 C390.589,400.082 398.647,408.141 398.647,418.082 C398.647,428.023 390.589,436.082 380.647,436.082 z" fill="#32312D"/>
        <path d="M380.647,436.082 C370.706,436.082 362.647,428.023 362.647,418.082 C362.647,408.141 370.706,400.082 380.647,400.082 C390.589,400.082 398.647,408.141 398.647,418.082 C398.647,428.023 390.589,436.082 380.647,436.082 z" fill-opacity="0" stroke="#32312D" stroke-width="7"/>
      </g>
    </g>
    <path d="M182.822,540.602 C164.828,540.602 150.241,526.015 150.241,508.021 C150.241,490.027 164.828,475.44 182.822,475.44 C200.816,475.44 215.403,490.027 215.403,508.021 C215.403,526.015 200.816,540.602 182.822,540.602 z" fill="#FF819F"/>
    <path d="M446.91,540.602 C428.916,540.602 414.329,526.015 414.329,508.021 C414.329,490.027 428.916,475.44 446.91,475.44 C464.904,475.44 479.491,490.027 479.491,508.021 C479.491,526.015 464.904,540.602 446.91,540.602 z" fill="#FF819F"/>
  </g>
  <g id="text">
    <path d="M459.598,447.968 L611.153,447.968 C616.247,447.968 620.376,451.68 620.376,456.259 L620.376,609.676 C620.376,614.255 616.247,617.968 611.153,617.968 L459.598,617.968 C454.505,617.968 450.376,614.255 450.376,609.676 L450.376,456.259 C450.376,451.68 454.505,447.968 459.598,447.968 z" fill-opacity="0" stroke="#000000" stroke-width="0.85"/>
    <text transform="matrix(1, 0, 0, 1, -1120.25, 247.5)"/>
    <g>
      <text transform="matrix(1, -0, 0, 1, 562.17, 499.743)">
        <tspan x="-79.994" y="19.225" font-family="Noteworthy-Bold" font-size="102" kerning="1.7" fill="#FFFFFF">cu</tspan>
      </text>
      <text transform="matrix(1, 0, -0, 1, 566.788, 560.786)">
        <tspan x="-79.994" y="39.418" font-family="Noteworthy-Bold" font-size="102" kerning="13.6" fill="#FFFFFF">te</tspan>
      </text>
    </g>
  </g>
</svg>
